/vscmnt/brussel_pixiu_data/_data_brussel/112/vsc11236/PredSimResults/SUBJ06mtu3D/worker2.mot
version=1
nRows=10
nColumns=50
inDegrees=yes
endheader
                time	         pelvis_tilt	         pelvis_list	     pelvis_rotation	           pelvis_tx	           pelvis_ty	           pelvis_tz	       hip_flexion_r	     hip_adduction_r	      hip_rotation_r	        knee_angle_r	       ankle_angle_r	         mtp_angle_r	       hip_flexion_l	     hip_adduction_l	      hip_rotation_l	        knee_angle_l	       ankle_angle_l	         mtp_angle_l	    lumbar_extension	      lumbar_bending	     lumbar_rotation	 ercspn_r/activation	 intobl_r/activation	 extobl_r/activation	    abd_r/activation	    add_r/activation	hamstrings_r/activation	bifemsh_r/activation	glut_max_r/activation	iliopsoas_r/activation	rect_fem_r/activation	  vasti_r/activation	gastroc_r/activation	 soleus_r/activation	tib_ant_r/activation	 ercspn_l/activation	 intobl_l/activation	 extobl_l/activation	    abd_l/activation	    add_l/activation	hamstrings_l/activation	bifemsh_l/activation	glut_max_l/activation	iliopsoas_l/activation	rect_fem_l/activation	  vasti_l/activation	gastroc_l/activation	 soleus_l/activation	tib_ant_l/activation	
          1.89261048	         -7.18724600	          1.31844381	         -5.42736776	          2.11972374	          0.93016398	          0.01109180	        -10.30592895	         -0.46881945	          0.48371032	         -9.30442278	          7.15368828	         34.09805326	         30.46902149	         -0.33333799	         -3.96108192	         -2.56870313	          1.53130686	          0.24065547	         -5.16577887	          0.59825166	         -0.26738728	          0.10511636	          0.01000000	          0.01000001	          0.05877281	          0.01000062	          0.01176278	          0.14296038	          0.04747191	          0.41950619	          0.02145583	          0.01000008	          0.36193983	          0.31360907	          0.02037160	          0.14383763	          0.14495797	          0.01000002	          0.01000000	          0.20691389	          0.17513649	          0.24075574	          0.03487543	          0.16899378	          0.01000009	          0.01000000	          0.02596838	          0.01000000	          0.38743994	
          1.90522789	         -7.25530848	          1.25867432	         -5.43809298	          2.13685508	          0.92822081	          0.01032288	        -10.68896003	         -0.51772424	          0.03633652	        -10.34483744	          6.25757548	         35.96095469	         30.64934484	         -0.20185424	         -3.62788814	         -4.52869589	          1.02218026	          0.20682976	         -4.85549944	          0.32361416	          0.08012049	          0.11217192	          0.01000000	          0.01000002	          0.04856093	          0.03679989	          0.02000210	          0.11812077	          0.03922360	          0.41221653	          0.01772788	          0.01905429	          0.33451153	          0.29642045	          0.01683200	          0.11884560	          0.13345024	          0.01000001	          0.01000001	          0.17096225	          0.16231278	          0.19892407	          0.07438375	          0.13963081	          0.01000003	          0.01000001	          0.02145634	          0.01409114	          0.43082032	
          1.91784529	         -7.30769572	          1.21845919	         -5.40929312	          2.15429973	          0.92657875	          0.00944721	        -10.89370593	         -0.59611127	         -0.43340203	        -11.73967582	          5.20347346	         37.87506454	         30.63563014	         -0.08643295	         -3.32630551	         -6.25992665	          0.50278119	          0.19709314	         -4.53282747	          0.02278146	          0.41926076	          0.10058073	          0.01000000	          0.01000002	          0.04012338	          0.03040588	          0.01652935	          0.09759709	          0.03240844	          0.41896019	          0.01464771	          0.02145628	          0.30243808	          0.27317988	          0.01390741	          0.12900394	          0.11026304	          0.01000002	          0.06704628	          0.15302632	          0.14854104	          0.16436078	          0.09766155	          0.11536971	          0.01000001	          0.01000000	          0.01772827	          0.01164278	          0.53702677	
          1.93046269	         -7.34514305	          1.16919599	         -5.34134564	          2.17180430	          0.92539010	          0.00845814	        -10.83956539	         -0.67605738	         -0.92624396	        -13.59643860	          3.95484528	         39.79800534	         30.50720500	          0.03064973	         -3.10538160	         -7.78390639	         -0.16009041	          0.16823420	         -4.23094616	         -0.27162042	          0.74311878	          0.13316576	          0.01000000	          0.01000001	          0.03315187	          0.06579404	          0.02837293	          0.08063943	          0.02677741	          0.41243190	          0.01210284	          0.01772824	          0.24988896	          0.24639124	          0.01149098	          0.14041517	          0.09110464	          0.01000001	          0.12134753	          0.22015026	          0.13385908	          0.13580283	          0.13805950	          0.09532402	          0.01000001	          0.01000000	          0.01464795	          0.01000000	          0.58898899	
          1.94308010	         -7.36602442	          1.11922606	         -5.24131916	          2.18918882	          0.92476382	          0.00737913	        -10.45352638	         -0.77204140	         -1.44463819	        -16.01906297	          2.51222507	         41.59649787	         30.32930833	          0.15780222	         -2.93339546	         -9.29084120	         -0.54591241	          0.12944243	         -3.96519019	         -0.56952157	          1.04969731	          0.17089354	          0.01000000	          0.01000001	          0.02739168	          0.12117705	          0.03058627	          0.06662820	          0.02212479	          0.39118153	          0.01000014	          0.01464793	          0.20647031	          0.20633301	          0.00999999	          0.14720958	          0.07527505	          0.01000001	          0.17327361	          0.25253757	          0.11922221	          0.11220686	          0.19610259	          0.07876130	          0.01000001	          0.01000014	          0.01210285	          0.01000003	          0.59862521	
          1.95569750	         -7.37061144	          1.07406282	         -5.11188118	          2.20626059	          0.92482603	          0.00623635	         -9.68502696	         -0.89659129	         -2.00012893	        -19.06213807	          0.90377601	         42.96782206	         30.14893843	          0.29573401	         -2.79160060	        -10.86430379	         -0.51537527	          0.09578109	         -3.74926109	         -0.87677614	          1.33557206	          0.19790887	          0.01000000	          0.01000001	          0.02263233	          0.19006507	          0.03368030	          0.05505148	          0.01828057	          0.34881173	          0.01000003	          0.01210283	          0.17059573	          0.17048229	          0.01000000	          0.14973890	          0.06219588	          0.01000001	          0.20179844	          0.26780095	          0.10726865	          0.09271073	          0.21146157	          0.06507639	          0.01000001	          0.04617469	          0.01000000	          0.01000000	          0.58391687	
          1.96831490	         -7.36050325	          1.03186057	         -4.95742877	          2.22293100	          0.92562304	          0.00506145	         -8.53605282	         -1.05895801	         -2.61005444	        -22.70873037	         -0.73955574	         43.37827918	         29.93011962	          0.44517245	         -2.64811320	        -12.41031979	         -0.12615360	          0.07370711	         -3.58486543	         -1.19031473	          1.59993986	          0.20998500	          0.01000001	          0.01000001	          0.01869992	          0.21597709	          0.02782947	          0.04548627	          0.01510429	          0.29209190	          0.01000004	          0.01000000	          0.14095442	          0.14086069	          0.01000000	          0.15107682	          0.05138924	          0.01000001	          0.21213028	          0.24611481	          0.09753244	          0.07660210	          0.20385802	          0.05376925	          0.01000001	          0.08853221	          0.01000001	          0.01000000	          0.51845500	
          1.98093231	         -7.33821652	          0.98573001	         -4.78119187	          2.23920533	          0.92712455	          0.00389144	         -7.05446348	         -1.26478736	         -3.26989648	        -26.84114823	         -2.45398898	         42.64861170	         29.60187371	          0.60125303	         -2.48162953	        -13.79510382	          0.60876786	          0.09078136	         -3.46425304	         -1.50235098	          1.84046467	          0.21388714	          0.01000001	          0.01000001	          0.01545077	          0.22460663	          0.02299449	          0.04777879	          0.01247989	          0.24134042	          0.01000003	          0.00999999	          0.11646334	          0.11638590	          0.01000000	          0.14275516	          0.04246027	          0.01000001	          0.21085124	          0.20335195	          0.08910936	          0.06329237	          0.18790249	          0.04442675	          0.01000001	          0.13012015	          0.01000002	          0.01000001	          0.43997651	
          1.99354971	         -7.30730647	          0.92696376	         -4.58384794	          2.25511204	          0.92925626	          0.00275413	         -5.31974895	         -1.51294706	         -3.97005382	        -31.23294282	         -4.42540647	         40.94540910	         29.09702609	          0.75481167	         -2.29047262	        -14.86827590	          1.52080247	          0.18607364	         -3.37907323	         -1.80235631	          2.05333889	          0.21211917	          0.01000001	          0.01000001	          0.01276618	          0.21185184	          0.01899946	          0.07346848	          0.01031149	          0.19940710	          0.01000003	          0.00999999	          0.09622763	          0.09616364	          0.01000000	          0.12674917	          0.03508273	          0.01000001	          0.20231448	          0.16801919	          0.08302171	          0.05229524	          0.16832815	          0.03670752	          0.01000001	          0.14607697	          0.01000001	          0.01000000	          0.37212755	
          2.00616711	         -7.27059576	          0.84556935	         -4.36708657	          2.27067353	          0.93187846	          0.00165567	         -3.41310690	         -1.79884733	         -4.70370910	        -35.68845307	         -6.62638760	         38.24987320	         28.39966719	          0.89273748	         -2.07525094	        -15.56441890	          2.39568615	          0.33889465	         -3.32491316	         -2.07535720	          2.23795624	          0.21433246	          0.01000000	          0.01000001	          0.01054803	          0.17923714	          0.01569875	          0.09017564	          0.00999999	          0.16475977	          0.01000003	          0.00999999	          0.07950791	          0.07945504	          0.04268476	          0.10472629	          0.02898705	          0.01000001	          0.19750786	          0.13882557	          0.07991570	          0.04320887	          0.14224518	          0.03032952	          0.01000001	          0.15176360	          0.01000000	          0.01000000	          0.32380094	
